{"title":"Mary.Poppins.1964.DvDRiP.XViD.Optional MultiSub.Zen_Bud.avi","uid":5781142,"size":1697431616,"categoryP":"video","categoryS":"movies","magnet":"?xt=urn:btih:137e1968737bccf30beb20435c0b12ecd37a8516&amp;dn=Mary.Poppins.1964.DvDRiP.XViD.Optional+MultiSub.Zen_Bud.avi&amp;tr=udp%3A%2F%2Ftracker.openbittorrent.com%3A80&amp;tr=udp%3A%2F%2Fopen.demonii.com%3A1337&amp;tr=udp%3A%2F%2Ftracker.coppersurfer.tk%3A6969&amp;tr=udp%3A%2F%2Fexodus.desync.com%3A6969","seeders":4,"leechers":0,"uploader":"Zen_Bud","files":-1,"time":1282411274,"description":"\nComplete name                    : Mary.Poppins.avi\nFormat                           : AVI\nFile size                        : 1.56 GiB\nDuration                         : 2h 13mn\nOverall bit rate                 : 1 666 Kbps\n\nVideo\n\nFormat                           : MPEG-4 Visual\nCodec ID/Hint                    : XviD\nDuration                         : 2h 13mn\nBit rate                         : 1 271 Kbps\nWidth                            : 720 pixels\nHeight                           : 552 pixels\nDisplay aspect ratio             : 1.855\nStream size                      : 1.19 GiB (76%)\nWriting library                  : XviD 1.1.2 (UTC 2006-11-01)\n\nAudio\n\nFormat                           : AC-3\nDuration                         : 2h 13mn\nBit rate                         : 384 Kbps\nChannel(s)                       : 6 channels\nChannel positions                : Front: L C R, Side: L R, LFE\nSampling rate                    : 48.0 KHz\nBit depth                        : 16 bits\nStream size                      : 367 MiB (23%)\n\n\n***********Text: English  Finnish Swedish Islandic**************","torrent":{"xt":"urn:btih:137e1968737bccf30beb20435c0b12ecd37a8516","amp;dn":"Mary.Poppins.1964.DvDRiP.XViD.Optional+MultiSub.Zen_Bud.avi","amp;tr":["udp%3A%2F%2Ftracker.openbittorrent.com%3A80","udp%3A%2F%2Fopen.demonii.com%3A1337","udp%3A%2F%2Ftracker.coppersurfer.tk%3A6969","udp%3A%2F%2Fexodus.desync.com%3A6969"],"infoHash":"137e1968737bccf30beb20435c0b12ecd37a8516","infoHashBuffer":{"type":"Buffer","data":[19,126,25,104,115,123,204,243,11,235,32,67,92,11,18,236,211,122,133,22]},"announce":[],"urlList":[]}}